<svg width="973" height="1014" viewBox="0 0 973 1014" fill="none" xmlns="http://www.w3.org/2000/svg">
<g filter="url(#filter0_d_210_47)">
<ellipse cx="479" cy="499.5" rx="479" ry="499.5" fill="#200E0E"/>
</g>
<g clip-path="url(#clip0_210_47)" filter="url(#filter1_d_210_47)">
<path d="M324 472.001L409 637.001L567.333 572.001L640.667 360.334L394 373.667L324 472.001Z" fill="#200E0E"/>
<g filter="url(#filter2_d_210_47)">
<path d="M379 842C450.797 842 509 783.797 509 712C509 640.203 450.797 582 379 582C307.203 582 249 640.203 249 712C249 783.797 307.203 842 379 842Z" fill="#E6EDFE"/>
</g>
<g filter="url(#filter3_d_210_47)">
<path d="M379 562C295.667 562 229 628.667 229 712C229 795.333 295.667 862 379 862C462.333 862 529 795.333 529 712C529 628.667 462.333 562 379 562ZM379 828.667C314 828.667 262.333 777 262.333 712C262.333 647 314 595.333 379 595.333C444 595.333 495.667 647 495.667 712C495.667 777 444 828.667 379 828.667Z" fill="white"/>
<path d="M395.665 662H362.332V795.333H395.665V662Z" fill="white"/>
</g>
<g filter="url(#filter4_d_210_47)">
<path d="M344.002 712.001C360.669 743.667 397.336 757.001 429.002 740.334L704.002 598.667C720.669 590.334 732.336 578.667 740.669 567.001C769.002 513.667 834.002 388.667 877.336 280.334L574.002 425.334L494.002 545.334L380.669 605.334C337.336 627.001 324.002 675.334 344.002 712.001Z" fill="#FFB74D"/>
<path d="M632.334 162L357.334 267C345.667 270.333 332.334 283.667 320.667 295.333L227.334 420.333C210.667 445.333 207.334 477 219.001 505.333C225.667 522 247.334 562 270.667 607C297.334 578.667 335.667 562 379.001 562C385.667 562 394.001 562 400.667 563.667L365.667 493.667L442.334 425.333H575.667C575.667 425.333 834.001 388.667 879.001 280.333L632.334 162Z" fill="#FFB74D"/>
</g>
<path d="M432.333 712C410.666 722 385.666 712 377.333 690.333C367.333 668.666 377.333 643.666 399 635.333C419 625.333 452.333 702 432.333 712Z" fill="#FFCDD2"/>
</g>
<defs>
<filter id="filter0_d_210_47" x="0" y="0" width="973" height="1014" filterUnits="userSpaceOnUse" color-interpolation-filters="sRGB">
<feFlood flood-opacity="0" result="BackgroundImageFix"/>
<feColorMatrix in="SourceAlpha" type="matrix" values="0 0 0 0 0 0 0 0 0 0 0 0 0 0 0 0 0 0 127 0" result="hardAlpha"/>
<feOffset dx="11" dy="11"/>
<feGaussianBlur stdDeviation="2"/>
<feComposite in2="hardAlpha" operator="out"/>
<feColorMatrix type="matrix" values="0 0 0 0 0 0 0 0 0 0 0 0 0 0 0 0 0 0 0.25 0"/>
<feBlend mode="normal" in2="BackgroundImageFix" result="effect1_dropShadow_210_47"/>
<feBlend mode="normal" in="SourceGraphic" in2="effect1_dropShadow_210_47" result="shape"/>
</filter>
<filter id="filter1_d_210_47" x="208" y="162" width="675" height="722" filterUnits="userSpaceOnUse" color-interpolation-filters="sRGB">
<feFlood flood-opacity="0" result="BackgroundImageFix"/>
<feColorMatrix in="SourceAlpha" type="matrix" values="0 0 0 0 0 0 0 0 0 0 0 0 0 0 0 0 0 0 127 0" result="hardAlpha"/>
<feOffset dy="4"/>
<feGaussianBlur stdDeviation="2"/>
<feComposite in2="hardAlpha" operator="out"/>
<feColorMatrix type="matrix" values="0 0 0 0 0 0 0 0 0 0 0 0 0 0 0 0 0 0 0.25 0"/>
<feBlend mode="normal" in2="BackgroundImageFix" result="effect1_dropShadow_210_47"/>
<feBlend mode="normal" in="SourceGraphic" in2="effect1_dropShadow_210_47" result="shape"/>
</filter>
<filter id="filter2_d_210_47" x="249" y="582" width="290" height="268" filterUnits="userSpaceOnUse" color-interpolation-filters="sRGB">
<feFlood flood-opacity="0" result="BackgroundImageFix"/>
<feColorMatrix in="SourceAlpha" type="matrix" values="0 0 0 0 0 0 0 0 0 0 0 0 0 0 0 0 0 0 127 0" result="hardAlpha"/>
<feOffset dx="26" dy="4"/>
<feGaussianBlur stdDeviation="2"/>
<feComposite in2="hardAlpha" operator="out"/>
<feColorMatrix type="matrix" values="0 0 0 0 0 0 0 0 0 0 0 0 0 0 0 0 0 0 0.25 0"/>
<feBlend mode="normal" in2="BackgroundImageFix" result="effect1_dropShadow_210_47"/>
<feBlend mode="normal" in="SourceGraphic" in2="effect1_dropShadow_210_47" result="shape"/>
</filter>
<filter id="filter3_d_210_47" x="225" y="562" width="308" height="308" filterUnits="userSpaceOnUse" color-interpolation-filters="sRGB">
<feFlood flood-opacity="0" result="BackgroundImageFix"/>
<feColorMatrix in="SourceAlpha" type="matrix" values="0 0 0 0 0 0 0 0 0 0 0 0 0 0 0 0 0 0 127 0" result="hardAlpha"/>
<feOffset dy="4"/>
<feGaussianBlur stdDeviation="2"/>
<feComposite in2="hardAlpha" operator="out"/>
<feColorMatrix type="matrix" values="0 0 0 0 0 0 0 0 0 0 0 0 0 0 0 0 0 0 0.25 0"/>
<feBlend mode="normal" in2="BackgroundImageFix" result="effect1_dropShadow_210_47"/>
<feBlend mode="normal" in="SourceGraphic" in2="effect1_dropShadow_210_47" result="shape"/>
</filter>
<filter id="filter4_d_210_47" x="212.094" y="149" width="680.906" height="598.551" filterUnits="userSpaceOnUse" color-interpolation-filters="sRGB">
<feFlood flood-opacity="0" result="BackgroundImageFix"/>
<feColorMatrix in="SourceAlpha" type="matrix" values="0 0 0 0 0 0 0 0 0 0 0 0 0 0 0 0 0 0 127 0" result="hardAlpha"/>
<feOffset dx="10" dy="-9"/>
<feGaussianBlur stdDeviation="2"/>
<feComposite in2="hardAlpha" operator="out"/>
<feColorMatrix type="matrix" values="0 0 0 0 0 0 0 0 0 0 0 0 0 0 0 0 0 0 0.25 0"/>
<feBlend mode="normal" in2="BackgroundImageFix" result="effect1_dropShadow_210_47"/>
<feBlend mode="normal" in="SourceGraphic" in2="effect1_dropShadow_210_47" result="shape"/>
</filter>
<clipPath id="clip0_210_47">
<rect width="667" height="714" fill="white" transform="translate(212 162)"/>
</clipPath>
</defs>
</svg>
