<svg width="80" height="79" viewBox="0 0 80 79" fill="none" xmlns="http://www.w3.org/2000/svg">
<g clip-path="url(#clip0_205_8)">
<g filter="url(#filter0_d_205_8)">
<rect x="17.25" y="27.0879" width="42.5" height="26.35" fill="#E7DDDD"/>
<circle cx="38.5" cy="37.5" r="36.5" fill="#B03887"/>
<g filter="url(#filter1_d_205_8)">
<path d="M57.0938 33.9099V46.2678L48.0459 36.4028L50.8215 34.5248C49.8281 34.2707 48.8889 33.8737 48.051 33.329L38.5 40.1147L23.6052 29.5312H38.5H44.7463C44.3494 28.7038 44.0823 27.814 43.9475 26.875H38.5H17.25V53.4375H38.5H59.75V32.0318C58.99 32.8101 58.0847 33.4378 57.0938 33.9099ZM19.9062 30.2835L28.9541 36.4026L19.9062 46.2676V30.2835ZM38.5 50.7812H23.1592L30.7232 37.596L38.5 42.854L46.2768 37.596L53.8408 50.7812H38.5Z" fill="#F3CE4C"/>
</g>
<g filter="url(#filter2_d_205_8)">
<path d="M53.1094 32.1875C56.7773 32.1875 59.75 29.2148 59.75 25.5469C59.75 21.8789 56.7773 18.9062 53.1094 18.9062C49.4414 18.9062 46.4688 21.8789 46.4688 25.5469C46.4688 29.2148 49.4414 32.1875 53.1094 32.1875ZM53.1094 20.499L56.2974 24.2188H54.4375V29.5312H51.7812V24.2188H49.9214L53.1094 20.499Z" fill="#F3CE4C"/>
</g>
</g>
</g>
<defs>
<filter id="filter0_d_205_8" x="-2" y="1" width="81" height="81" filterUnits="userSpaceOnUse" color-interpolation-filters="sRGB">
<feFlood flood-opacity="0" result="BackgroundImageFix"/>
<feColorMatrix in="SourceAlpha" type="matrix" values="0 0 0 0 0 0 0 0 0 0 0 0 0 0 0 0 0 0 127 0" result="hardAlpha"/>
<feOffset dy="4"/>
<feGaussianBlur stdDeviation="2"/>
<feComposite in2="hardAlpha" operator="out"/>
<feColorMatrix type="matrix" values="0 0 0 0 0 0 0 0 0 0 0 0 0 0 0 0 0 0 0.25 0"/>
<feBlend mode="normal" in2="BackgroundImageFix" result="effect1_dropShadow_205_8"/>
<feBlend mode="normal" in="SourceGraphic" in2="effect1_dropShadow_205_8" result="shape"/>
</filter>
<filter id="filter1_d_205_8" x="13.25" y="26.875" width="50.5" height="34.5625" filterUnits="userSpaceOnUse" color-interpolation-filters="sRGB">
<feFlood flood-opacity="0" result="BackgroundImageFix"/>
<feColorMatrix in="SourceAlpha" type="matrix" values="0 0 0 0 0 0 0 0 0 0 0 0 0 0 0 0 0 0 127 0" result="hardAlpha"/>
<feOffset dy="4"/>
<feGaussianBlur stdDeviation="2"/>
<feComposite in2="hardAlpha" operator="out"/>
<feColorMatrix type="matrix" values="0 0 0 0 0 0 0 0 0 0 0 0 0 0 0 0 0 0 0.25 0"/>
<feBlend mode="normal" in2="BackgroundImageFix" result="effect1_dropShadow_205_8"/>
<feBlend mode="normal" in="SourceGraphic" in2="effect1_dropShadow_205_8" result="shape"/>
</filter>
<filter id="filter2_d_205_8" x="42.4688" y="18.9062" width="21.2812" height="21.2812" filterUnits="userSpaceOnUse" color-interpolation-filters="sRGB">
<feFlood flood-opacity="0" result="BackgroundImageFix"/>
<feColorMatrix in="SourceAlpha" type="matrix" values="0 0 0 0 0 0 0 0 0 0 0 0 0 0 0 0 0 0 127 0" result="hardAlpha"/>
<feOffset dy="4"/>
<feGaussianBlur stdDeviation="2"/>
<feComposite in2="hardAlpha" operator="out"/>
<feColorMatrix type="matrix" values="0 0 0 0 0 0 0 0 0 0 0 0 0 0 0 0 0 0 0.25 0"/>
<feBlend mode="normal" in2="BackgroundImageFix" result="effect1_dropShadow_205_8"/>
<feBlend mode="normal" in="SourceGraphic" in2="effect1_dropShadow_205_8" result="shape"/>
</filter>
<clipPath id="clip0_205_8">
<rect width="80" height="79" fill="white"/>
</clipPath>
</defs>
</svg>
