<svg width="50" height="50" viewBox="0 0 50 50" fill="none" xmlns="http://www.w3.org/2000/svg">
<circle cx="25" cy="25" r="25" fill="url(#paint0_linear_203_53)"/>
<path d="M42 24.3098L41.1213 37.1067C41.1213 37.7015 40.5817 38.1889 39.9274 38.1889H9.07259C8.41832 38.1889 7.87869 37.7016 7.87869 37.1067L7.80705 36.2841L7 24.3098C7 24.2719 7.00479 24.2339 7.0095 24.1896C7.0095 24.1578 7.01429 24.1264 7.02386 24.101C7.02386 24.0884 7.02864 24.082 7.02864 24.0757L7.16714 23.9363L7.40113 23.7086L7.85005 23.2719C7.9599 23.2402 8.07454 23.2275 8.1939 23.2275H40.8061C40.9255 23.2275 41.0401 23.2402 41.15 23.2719L41.2598 23.3795L41.5989 23.7086L41.7039 23.81L41.8376 23.9363L41.9045 24.006L41.9714 24.0757C41.9714 24.082 41.9761 24.0884 41.9761 24.101C41.9857 24.1264 41.9904 24.1579 41.9952 24.1896C42 24.2276 42 24.2719 42 24.3098Z" fill="#525252"/>
<path d="M42 24.1006H7L7.02864 24.0752L7.16714 23.9359L7.40113 23.7081L7.85005 23.2715L12.2626 18.9932H36.7373L41.15 23.2715L41.2598 23.379L41.5989 23.7081L41.7039 23.8095L41.8376 23.9359L41.9044 24.0055L41.9714 24.0752L42 24.1006Z" fill="#909091"/>
<path d="M34.5367 32.8662H14.4753C14.3767 32.8662 14.2969 32.9814 14.2969 33.1235V33.7745C14.2969 33.9166 14.3768 34.0318 14.4753 34.0318H34.5367C34.6353 34.0318 34.7151 33.9166 34.7151 33.7745V33.1235C34.7151 32.9814 34.6352 32.8662 34.5367 32.8662Z" fill="#555557"/>
<path d="M35.1697 8.29883V21.8364H30.332V16.1404H32.8392V13.881H30.9577V8.29883H35.1697Z" fill="#525252"/>
<path d="M18.6619 16.1404V21.8364H13.8242V8.29883H18.0362V13.881H16.1547V16.1404H18.6619Z" fill="#525252"/>
<path d="M32.7672 33.4492H16.2578V39.9997H32.7672V33.4492Z" fill="#DB7E7E"/>
<path d="M24.2444 36.792H18.1562V37.8902H24.2444V36.792Z" fill="#B4DEDF"/>
<path d="M30.8632 34.3564H18.1562V35.4546H30.8632V34.3564Z" fill="#B4DEDF"/>
<path d="M30.2068 5H16.2383V22.0499H32.7473V8.36701L30.2068 5ZM18.1389 9.53776H24.2278V10.6391H21.1834H18.1389V9.53776ZM18.1389 11.9744H30.8467V13.0755H18.1389V11.9744ZM18.1389 14.6768H30.8467V15.7717H18.1389V14.6768ZM30.8467 17.1957V18.2969H18.1389V17.1957H30.8467Z" fill="#DB7E7E"/>
<path d="M24.2288 9.54004H18.1406V10.6382H24.2288V9.54004Z" fill="#B4DEDF"/>
<path d="M30.8476 11.9746H18.1406V13.0728H30.8476V11.9746Z" fill="#B4DEDF"/>
<path d="M30.8476 14.6758H18.1406V15.774H30.8476V14.6758Z" fill="#B4DEDF"/>
<path d="M30.8476 17.1982H18.1406V18.2964H30.8476V17.1982Z" fill="#B4DEDF"/>
<path d="M32.7515 8.36701H30.2109V5L32.7515 8.36701Z" fill="#B4DEDF"/>
<path d="M32.8049 28.7955C33.3984 28.7955 33.8794 28.3142 33.8794 27.7205C33.8794 27.1268 33.3984 26.6455 32.8049 26.6455C32.2115 26.6455 31.7305 27.1268 31.7305 27.7205C31.7305 28.3142 32.2115 28.7955 32.8049 28.7955Z" fill="#6DF157"/>
<path d="M36.2503 28.7955C36.8437 28.7955 37.3247 28.3142 37.3247 27.7205C37.3247 27.1268 36.8437 26.6455 36.2503 26.6455C35.6568 26.6455 35.1758 27.1268 35.1758 27.7205C35.1758 28.3142 35.6568 28.7955 36.2503 28.7955Z" fill="#F20E0E"/>
<path opacity="0.1" d="M45.4761 25.1005H45.5L45.4713 25.0752L45.4044 25.0054L45.3376 24.9357L45.2039 24.8094L45.0988 24.7079L44.7597 24.379L44.6499 24.2714L40.2373 19.993H38.6757V9.29726H36.2018L33.714 6H28V12.9744V14.0728H34.3539V14.0757H28V18.1957H33.8381V18.1987H28V40.9999H36.2552V39.1883H43.4274C44.0816 39.1883 44.6213 38.701 44.6213 38.1061L45.5 25.3094C45.5 25.2714 45.5 25.2271 45.4952 25.1891C45.4904 25.1573 45.4856 25.1259 45.4761 25.1005ZM36.3452 14.8807H36.2552V17.1367H36.3452V17.139H36.2545V14.8796H36.3452V14.8807Z" fill="#3C3B3B"/>
<defs>
<linearGradient id="paint0_linear_203_53" x1="25" y1="0" x2="25" y2="50" gradientUnits="userSpaceOnUse">
<stop stop-color="#AAC45D"/>
<stop offset="0.32" stop-color="#D1F174"/>
<stop offset="1" stop-color="#737373"/>
</linearGradient>
</defs>
</svg>
